<svg xmlns="http://www.w3.org/2000/svg" viewBox="0 0 256 256" width="100" height="100"><path d="M39.293 13.227c-5.033-.036-10.071.109-15.102.617-1.127.113-2.625.27-3.662 1.449-.595.678-.818 1.458-.986 2.098-.249.947-.44 1.695-.557 2.681-1.017.424-1.967 1.07-2.562 2.114-.509.89-.657 1.816-.797 2.605-.99 5.574-4.54 28.548-4.54 41.615 0 9.392 1.986 14.392 4.183 17.078 1.098 1.344 2.247 2.091 3.158 2.49.455.2.85.314 1.15.38.3.065.607.094.535.085 17.323 1.995 46.314 1.096 58.701.112a1 1 0 0 0 .235-.045c4.612-.032 7.608-1.345 9.201-3.846 1.612-2.531 1.785-5.93 1.611-10.017-.348-8.174-2.252-19.344.42-32.247a1 1 0 0 0-1.152-1.187s-.72.126-1.627.23c-.737.085-1.547.123-2.156.104.107-.655.2-1.26.314-1.943a1.128 1.128 0 0 0-.209-.801.919.919 0 0 0-.33-.27c-.162-.084-.235-.09-.3-.103-.132-.027-.214-.033-.313-.04-.198-.013-.43-.016-.719-.019-.576-.005-1.355-.001-2.228-.008a39.864 39.864 0 0 1-4.405-.287A405.596 405.596 0 0 1 80.36 23.87a1 1 0 0 0-.086-.967 1 1 0 0 0-.832-.453 23.154 23.154 0 0 0-4.38-.476c.186-.751.368-1.499.558-2.252a1 1 0 0 0-.8-1.23c-.398-.07-.955-.1-1.934-.15l-.319-.01.557-2.425a1 1 0 0 0-.912-1.22s-12.33-.755-17.856-.993c-5.003-.215-10.03-.431-15.062-.466zm-.014 2.002c4.985.035 9.987.247 14.99.462 5.109.22 15.191.836 16.64.924l-.376 1.635c-.54-.02-.909-.04-1.54-.059a459.384 459.384 0 0 0-12.444-.185c-9.875-.022-22.247.229-33.16 1.176-.708.061-1.49.145-2.284.289.095-.48.212-.957.374-1.573.15-.57.322-1.022.552-1.285.412-.468 1.303-.673 2.36-.779 4.935-.498 9.903-.64 14.888-.605zm17.266 4.777c4.918.01 9.214.09 12.387.185 1.586.048 2.891.1 3.85.149.35.018.36.026.62.045-3.599 14.355-6.675 28.436-6.675 43.377 0 10.322 2.767 16.343 5.923 19.568-7.839.655-32.51.713-43.533.34-10.985-.372-13.104-2.412-15.38-9.211-.397-2.179-.65-4.812-.65-8.053 0-12.7 3.541-35.818 4.509-41.265.14-.785.282-1.468.566-1.965.392-.688 1.113-1.142 2.102-1.455.989-.314 2.19-.451 3.298-.547 10.815-.938 23.146-1.19 32.983-1.168zm18.773 3.969c1.175.029 2.16.17 2.87.29-2.337 8.424-5 18.273-6.155 27.848-1.2 9.958-.8 19.586 3.522 26.79 1.301 2.168 4.019 3.292 6.363 2.38 1.172-.456 2.184-1.474 2.715-2.957.53-1.483.629-3.41.176-5.883-2.134-11.631-1.647-19.117.212-30.896.876.06 1.857-.023 2.71-.121.228-.026.21-.032.41-.059-2.34 12.707-.603 23.71-.278 31.362.17 3.967-.11 6.986-1.3 8.857-1.192 1.87-3.313 2.932-7.67 2.932-2.522 0-10.166-4.005-10.166-20.756 0-13.603 2.597-26.553 5.835-39.78.255-.004.517-.013.756-.007zm-25.279.718c-14.47.02-27.107 1.051-27.107 1.051a1 1 0 0 0 .162 1.994s22.4-1.816 41.506-.656a1 1 0 1 0 .12-1.998c-4.83-.293-9.857-.397-14.681-.39zm4.438 7.72a188.451 188.451 0 0 0-8.47.264 1 1 0 0 0-.925.807c-1.353 7.02-1.098 10.676-1.098 10.676a1 1 0 0 0 .955.926s10.712.454 16.872-.002a1 1 0 0 0 .925-.965c.167-5.12 1.11-10.32 1.11-10.32a1 1 0 0 0-.91-1.178c-2.647-.194-5.69-.234-8.46-.209zm-22.159.347a150.648 150.648 0 0 0-5.103.023c-3.07.065-5.26.194-5.26.194a1 1 0 0 0-.924.808c-1.353 7.02-1.097 10.676-1.097 10.676a1 1 0 0 0 .95.926s9.748.452 15.9-.002a1 1 0 0 0 .927-.998c0-3.978.963-10.26.963-10.26a1 1 0 0 0-.914-1.15 92.294 92.294 0 0 0-5.442-.217zm44.356 5.273c1.555.212 3.332.315 4.87.326.791.006 1.445.006 1.977.008-2.233 13.524-3.018 21.688-.68 34.436.41 2.236.277 3.82-.091 4.85-.368 1.028-.923 1.518-1.557 1.765-1.176.458-2.848-.121-3.724-1.273a3.915 3.915 0 0 0 1.332-.487c.616-.362 1.02-1.005 1.185-1.664.166-.659.166-1.36.108-2.168-.117-1.614-.5-3.675-.832-6.363-.664-5.376-1.149-13.21 1.05-24.131a1 1 0 0 0-1.033-1.195 19.254 19.254 0 0 1-3.492-.114c.283-1.335.577-2.668.887-3.99zm-1.276 5.91c.512.032 1.463.096 2.778.133-1.976 10.54-1.552 18.339-.899 23.633.34 2.747.718 4.849.82 6.262.052.706.026 1.235-.05 1.537-.076.301-.127.35-.26.428-.364.213-.774.3-1.039.244-.257-.055-.5-.177-.764-.817-.008-.021-.016-.032-.025-.054a1.056 1.056 0 0 0-.008-.018c-2.717-6.295-2.96-14.41-1.931-22.94.335-2.78.82-5.597 1.378-8.408zm-14.464 6.319c-.024 0-.047 0-.07.002-21.852.925-40.782.523-40.782.523a1 1 0 1 0-.043 1.998s18.986.405 40.91-.523a1 1 0 0 0-.015-2zm-.446 6.718c-.023 0-.047 0-.07.002-21.84.925-41.293.153-41.293.153a1 1 0 1 0-.078 1.998s19.52.777 41.457-.153a1 1 0 0 0-.016-2zM18.6 63.96a1 1 0 0 0-.02 1.998s7.9.47 17.78.158a1 1 0 1 0-.063-2c-9.782.31-17.598-.154-17.598-.154a.997.997 0 0 0-.1-.002zm24.238.154a1 1 0 0 0-.053 1.998s9.202.708 18.455 0a1 1 0 1 0-.152-1.994c-9.051.692-18.15 0-18.15 0a1 1 0 0 0-.1-.004zm.812 6.258a1 1 0 0 0 .022 2s12.792.513 17.828.317a1 1 0 1 0-.078-1.999c-4.762.186-17.672-.318-17.672-.318a1.003 1.003 0 0 0-.1 0zm-6.978.162c-4.82.188-17.578.098-17.578.098a1 1 0 1 0-.016 2s12.691.096 17.67-.098a1 1 0 1 0-.076-2zm-16.127 5.875a1 1 0 0 0-.092 1.996s10.206.99 17.307.469a1 1 0 1 0-.147-1.994c-6.771.497-16.968-.465-16.968-.465a1.001 1.001 0 0 0-.1-.006zm24.185.154a1 1 0 0 0-.064 1.999s11.707.988 18.818.466a1 1 0 1 0-.146-1.994c-6.761.496-18.508-.465-18.508-.465a1.001 1.001 0 0 0-.1-.005z" transform="scale(2.56)" fill="#5a544b" stroke-miterlimit="10" font-family="none" font-weight="none" font-size="none" text-anchor="none" style="mix-blend-mode:normal"/></svg>