<?xml version="1.0" encoding="UTF-8"?>
<!DOCTYPE svg PUBLIC "-//W3C//DTD SVG 1.1//EN" "http://www.w3.org/Graphics/SVG/1.1/DTD/svg11.dtd">
<svg xmlns="http://www.w3.org/2000/svg" version="1.1" width="150px" height="150px" style="shape-rendering:geometricPrecision; text-rendering:geometricPrecision; image-rendering:optimizeQuality; fill-rule:evenodd; clip-rule:evenodd" xmlns:xlink="http://www.w3.org/1999/xlink">
<g><path style="opacity:0.733" fill="#499cd2" d="M -0.5,-0.5 C 49.5,-0.5 99.5,-0.5 149.5,-0.5C 149.5,27.1667 149.5,54.8333 149.5,82.5C 146.5,77.1667 143.5,71.8333 140.5,66.5C 140.5,65.5 140.5,64.5 140.5,63.5C 140.5,45.1667 140.5,26.8333 140.5,8.5C 96.5,8.5 52.5,8.5 8.5,8.5C 8.5,52.5 8.5,96.5 8.5,140.5C 19.8333,140.5 31.1667,140.5 42.5,140.5C 44.1054,143.378 45.4388,146.378 46.5,149.5C 30.8333,149.5 15.1667,149.5 -0.5,149.5C -0.5,99.5 -0.5,49.5 -0.5,-0.5 Z"/></g>
<g><path style="opacity:0.702" fill="#2e8ccc" d="M 140.5,63.5 C 135.848,54.8649 131.181,46.1983 126.5,37.5C 126.586,36.5041 126.252,35.6708 125.5,35C 95.5019,34.5 65.5019,34.3334 35.5,34.5C 35.5,36.8333 35.5,39.1667 35.5,41.5C 31.1667,41.5 26.8333,41.5 22.5,41.5C 22.3334,60.5029 22.5001,79.5029 23,98.5C 23.5725,100.641 24.4058,102.641 25.5,104.5C 31.1853,116.535 36.852,128.535 42.5,140.5C 31.1667,140.5 19.8333,140.5 8.5,140.5C 8.5,96.5 8.5,52.5 8.5,8.5C 52.5,8.5 96.5,8.5 140.5,8.5C 140.5,26.8333 140.5,45.1667 140.5,63.5 Z"/></g>
<g><path style="opacity:1" fill="#f8fafb" d="M 126.5,37.5 C 126.667,57.8361 126.5,78.1694 126,98.5C 125.496,102.02 123.663,104.52 120.5,106C 89.8333,106.667 59.1667,106.667 28.5,106C 27.7562,104.961 26.7562,104.461 25.5,104.5C 24.4058,102.641 23.5725,100.641 23,98.5C 22.5001,79.5029 22.3334,60.5029 22.5,41.5C 26.8333,41.5 31.1667,41.5 35.5,41.5C 35.5,39.1667 35.5,36.8333 35.5,34.5C 65.5019,34.3334 95.5019,34.5 125.5,35C 126.252,35.6708 126.586,36.5041 126.5,37.5 Z"/></g>
<g><path style="opacity:0.82" fill="#174869" d="M 126.5,37.5 C 131.181,46.1983 135.848,54.8649 140.5,63.5C 140.5,64.5 140.5,65.5 140.5,66.5C 140.5,91.1667 140.5,115.833 140.5,140.5C 107.833,140.5 75.1667,140.5 42.5,140.5C 36.852,128.535 31.1853,116.535 25.5,104.5C 26.7562,104.461 27.7562,104.961 28.5,106C 59.1667,106.667 89.8333,106.667 120.5,106C 123.663,104.52 125.496,102.02 126,98.5C 126.5,78.1694 126.667,57.8361 126.5,37.5 Z"/></g>
<g><path style="opacity:0.82" fill="#1b4a6b" d="M 42.5,42.5 C 67.8333,42.5 93.1667,42.5 118.5,42.5C 118.826,61.4097 118.493,80.243 117.5,99C 92.5022,99.5 67.5022,99.6666 42.5,99.5C 42.5,80.5 42.5,61.5 42.5,42.5 Z"/></g>
<g><path style="opacity:1" fill="#fbfcfc" d="M 48.5,48.5 C 59.1667,48.5 69.8333,48.5 80.5,48.5C 80.5,59.1667 80.5,69.8333 80.5,80.5C 69.8333,80.5 59.1667,80.5 48.5,80.5C 48.5,69.8333 48.5,59.1667 48.5,48.5 Z"/></g>
<g><path style="opacity:0.976" fill="#c1ced7" d="M 48.5,48.5 C 59.3206,47.5054 70.3206,47.1721 81.5,47.5C 81.5,58.8333 81.5,70.1667 81.5,81.5C 70.3206,81.8279 59.3206,81.4946 48.5,80.5C 59.1667,80.5 69.8333,80.5 80.5,80.5C 80.5,69.8333 80.5,59.1667 80.5,48.5C 69.8333,48.5 59.1667,48.5 48.5,48.5 Z"/></g>
<g><path style="opacity:1" fill="#f5f7f9" d="M 113.5,54.5 C 104.833,54.5 96.1667,54.5 87.5,54.5C 87.5,52.5 87.5,50.5 87.5,48.5C 95.9839,47.507 104.651,47.1736 113.5,47.5C 113.5,49.8333 113.5,52.1667 113.5,54.5 Z"/></g>
<g><path style="opacity:0.886" fill="#7391a5" d="M 35.5,49.5 C 33.8333,49.5 32.1667,49.5 30.5,49.5C 30.5,65.5 30.5,81.5 30.5,97.5C 29.5036,81.3419 29.1702,65.0085 29.5,48.5C 31.7354,48.2053 33.7354,48.5386 35.5,49.5 Z"/></g>
<g><path style="opacity:0.82" fill="#184869" d="M 35.5,49.5 C 35.6666,65.5035 35.4999,81.5035 35,97.5C 33.3499,100.106 31.8499,100.106 30.5,97.5C 30.5,81.5 30.5,65.5 30.5,49.5C 32.1667,49.5 33.8333,49.5 35.5,49.5 Z"/></g>
<g><path style="opacity:0.961" fill="#cfdae1" d="M 87.5,48.5 C 87.5,50.5 87.5,52.5 87.5,54.5C 96.1667,54.5 104.833,54.5 113.5,54.5C 104.682,55.4933 95.6822,55.8266 86.5,55.5C 86.1984,52.9407 86.5318,50.6074 87.5,48.5 Z"/></g>
<g><path style="opacity:0.82" fill="#174869" d="M 55.5,55.5 C 61.5,55.5 67.5,55.5 73.5,55.5C 73.5,61.5 73.5,67.5 73.5,73.5C 67.5,73.5 61.5,73.5 55.5,73.5C 55.5,67.5 55.5,61.5 55.5,55.5 Z"/></g>
<g><path style="opacity:1" fill="#fafbfb" d="M 87.5,60.5 C 96.1667,60.5 104.833,60.5 113.5,60.5C 113.5,62.8333 113.5,65.1667 113.5,67.5C 104.833,67.5 96.1667,67.5 87.5,67.5C 87.5,65.1667 87.5,62.8333 87.5,60.5 Z"/></g>
<g><path style="opacity:0.933" fill="#b0c0cc" d="M 87.5,60.5 C 87.5,62.8333 87.5,65.1667 87.5,67.5C 96.1667,67.5 104.833,67.5 113.5,67.5C 104.682,68.4933 95.6822,68.8266 86.5,68.5C 86.1936,65.6146 86.5269,62.9479 87.5,60.5 Z"/></g>
<g><path style="opacity:0.839" fill="#335e7b" d="M 140.5,66.5 C 143.5,71.8333 146.5,77.1667 149.5,82.5C 149.5,104.833 149.5,127.167 149.5,149.5C 115.167,149.5 80.8333,149.5 46.5,149.5C 45.4388,146.378 44.1054,143.378 42.5,140.5C 75.1667,140.5 107.833,140.5 140.5,140.5C 140.5,115.833 140.5,91.1667 140.5,66.5 Z"/></g>
<g><path style="opacity:1" fill="#edf1f3" d="M 86.5,73.5 C 95.5,73.5 104.5,73.5 113.5,73.5C 113.5,76.1667 113.5,78.8333 113.5,81.5C 104.5,81.5 95.5,81.5 86.5,81.5C 86.5,78.8333 86.5,76.1667 86.5,73.5 Z"/></g>
<g><path style="opacity:0.999" fill="#fdfdfe" d="M 48.5,86.5 C 59.5,86.5 70.5,86.5 81.5,86.5C 81.5,88.8333 81.5,91.1667 81.5,93.5C 70.5,93.5 59.5,93.5 48.5,93.5C 48.5,91.1667 48.5,88.8333 48.5,86.5 Z"/></g>
<g><path style="opacity:0.999" fill="#fcfcfd" d="M 86.5,86.5 C 95.5,86.5 104.5,86.5 113.5,86.5C 113.5,88.8333 113.5,91.1667 113.5,93.5C 104.5,93.5 95.5,93.5 86.5,93.5C 86.5,91.1667 86.5,88.8333 86.5,86.5 Z"/></g>
</svg>
